<?xml version="1.0" encoding="UTF-8" standalone="no"?>
<svg
   xmlns:dc="http://purl.org/dc/elements/1.1/"
   xmlns:cc="http://creativecommons.org/ns#"
   xmlns:rdf="http://www.w3.org/1999/02/22-rdf-syntax-ns#"
   xmlns:svg="http://www.w3.org/2000/svg"
   xmlns="http://www.w3.org/2000/svg"
   xmlns:sodipodi="http://sodipodi.sourceforge.net/DTD/sodipodi-0.dtd"
   xmlns:inkscape="http://www.inkscape.org/namespaces/inkscape"
   version="1.1"
   x="0px"
   y="0px"
   viewBox="0 0 29.188784 50.01001"
   xml:space="preserve"
   id="svg16"
   sodipodi:docname="baby.svg"
   width="29.188784"
   height="50.01001"
   inkscape:version="0.92.4 (5da689c313, 2019-01-14)"><metadata
     id="metadata22"><rdf:RDF><cc:Work
         rdf:about=""><dc:format>image/svg+xml</dc:format><dc:type
           rdf:resource="http://purl.org/dc/dcmitype/StillImage" /><dc:title></dc:title></cc:Work></rdf:RDF></metadata><defs
     id="defs20" /><sodipodi:namedview
     pagecolor="#ffffff"
     bordercolor="#666666"
     borderopacity="1"
     objecttolerance="10"
     gridtolerance="10"
     guidetolerance="10"
     inkscape:pageopacity="0"
     inkscape:pageshadow="2"
     inkscape:window-width="1920"
     inkscape:window-height="1017"
     id="namedview18"
     showgrid="false"
     fit-margin-top="0"
     fit-margin-left="0"
     fit-margin-right="0"
     fit-margin-bottom="0"
     inkscape:zoom="3.1466667"
     inkscape:cx="14.594374"
     inkscape:cy="14.556165"
     inkscape:window-x="-8"
     inkscape:window-y="-8"
     inkscape:window-maximized="1"
     inkscape:current-layer="svg16" /><path
     d="m 14.599379,0 c -4.289978,0 -7.7799678,3.4900513 -7.7799678,7.7800289 0,4.2899781 3.4899898,7.7800301 7.7799678,7.7800301 4.290039,0 7.770019,-3.490052 7.770019,-7.7800301 C 22.369398,3.4900513 18.889418,0 14.599379,0 Z"
     id="path2"
     inkscape:connector-curvature="0" /><path
     d="m 23.169386,18.880005 c -0.679992,-0.979981 -1.799988,-1.569946 -2.98999,-1.569946 H 9.0094132 c -1.190002,0 -2.309997,0.589965 -2.98999,1.569946 l -5.52002004,8.050049 c -0.429992,0.619995 -0.590026,1.380005 -0.450012,2.119995 0.140015,0.75 0.559998,1.399963 1.19000304,1.829956 1.160034,0.790039 2.73999,0.600037 3.690002,-0.429993 l 2.5,-2.73999 v 2.109985 H 21.759413 v -2.109985 l 2.5,2.73999 c 0.950012,1.03003 2.539978,1.220032 3.690002,0.429993 0.630005,-0.429993 1.049988,-1.079956 1.190003,-1.829956 0.139953,-0.73999 -0.02002,-1.5 -0.450012,-2.119995 z"
     id="path4"
     inkscape:connector-curvature="0" /><polygon
     points="23.364197,36.811523 30.001892,42.423706 36.639343,36.811523 "
     id="polygon6"
     transform="translate(-15.405626,-4.9949951)" /><path
     d="m 4.1394182,36.850037 c -1.050049,1.190002 -1.640015,2.71997 -1.640015,4.299988 0,1.72998 0.710022,3.419982 1.950012,4.630004 l 3.440003,3.369996 c 1.149963,1.130004 2.9699708,1.140014 4.1399538,0.03003 1.180053,-1.130005 1.230041,-3.01001 0.110046,-4.200012 l -3.1300048,-3.330017 3.3200068,-3.52002 -5.3300168,-4.5 z"
     id="path8"
     inkscape:connector-curvature="0" /><path
     d="m 17.169386,49.180054 c 0.580017,0.549988 1.309998,0.829956 2.049988,0.829956 0.75,0 1.5,-0.289978 2.090027,-0.859986 l 3.429993,-3.369995 c 1.23999,-1.210022 1.950012,-2.900024 1.950012,-4.630005 0,-1.580017 -0.580017,-3.109985 -1.640015,-4.299987 l -2.859985,-3.220032 -5.320008,4.490051 3.320008,3.529969 -3.140015,3.330017 c -1.119995,1.190002 -1.070007,3.070007 0.119995,4.200012 z"
     id="path10"
     inkscape:connector-curvature="0" /></svg>