<svg height="512pt" viewBox="0 -24 512.00022 512" width="512pt" xmlns="http://www.w3.org/2000/svg"><path d="m447.886719 344.496094h-58.542969l-47.117188-64.035156c-6.734374-9.152344-18.914062-12.40625-29.3125-7.832032l-52.882812 23.285156c-3.277344 2.617188-7.105469 4.652344-11.398438 5.863282-23.96875 6.753906-54.675781 15.40625-78.640624 22.160156-9.273438 2.617188-18.859376-.957031-24.355469-8.195312l-38.160157-50.523438 46.9375 40.308594c4.753907 4.082031 11.316407 5.621094 17.527344 3.871094l73.039063-20.585938c10.09375-2.847656 15.972656-13.335938 13.128906-23.433594-2.847656-10.097656-13.339844-15.976562-23.433594-13.128906l-63.238281 17.824219-39.210938-33.671875 37.386719 20.191406 61.40625-17.308594c16.039063-4.519531 32.65625 3.847656 38.828125 18.90625 1.5-.101562 3.015625-.386718 4.507813-.878906l69.859375-23.171875c4.175781-1.382813 7.707031-4.234375 9.945312-8.019531l25.980469-43.933594-14.03125 51c-3.277344 11.914062-15.015625 12.832031-17.523437 14.132812l-27.464844 9.105469c12.472656-.5 24.78125 5.097657 32.53125 15.632813l43.96875 59.75h48.148437l-33.386719-182.46875c-2.175781-11.894532-11.773437-20.453125-22.984374-20.453125-15.988282 0-26.121094 0-40.527344 0-11.1875 0-20.8125 8.582031-22.984375 20.453125l-7.375 40.316406 30.265625-26.011719-22.507813 38.0625-63.382812 21.019531c-6.539063 2.167969-11.007813 7.691407-12.167969 14.023438-4.605469-2.871094-11.832031-6.414062-16.445312-7.855469v-92.628906h17.457031c7.910156 0 14.320312-6.410156 14.320312-14.320313v-107.625c0-7.910156-6.410156-14.320312-14.320312-14.320312h-187.414063c-7.90625 0-14.320312 6.410156-14.320312 14.320312v93.554688c4.929687-1.460938 10.058594-2.21875 15.238281-2.21875 21.335937 0 39.757813 12.144531 48.648437 30.609375h100.414063v85.078125c-12.066406-3.027344-36.238281-1.882812-48.726563 3.1875l-37.511718-26.792969c-10.320313-7.285156-24.382813-6.09375-33.328125 2.820313l-28.980469 28.878906c-8.265625 8.261719-9.03125 21.644531-1.867188 32.019531l76.992188 112.058594c8.105469 11.792969 21.496094 18.839844 35.808594 18.839844h271.714844c13.445312 0 24.335937-10.253907 24.265624-23.722657-.070312-13.4375-11.339843-24.136718-24.777343-24.136718zm-284.808594-241.222656h-36.175781c-9.621094 0-17.417969-7.800782-17.417969-17.417969 0-4.183594 1.476563-8.023438 3.9375-11.023438v-10.542969l-9.960937-10.453124c-4.425782-4.644532-4.246094-11.992188.394531-16.417969s11.992187-4.246094 16.417969.394531l13.167968 13.816406c2.054688 2.160156 3.203125 5.027344 3.203125 8.011719v8.796875h10.761719l.238281-23.949219c.0625-6.375 5.25-11.496093 11.609375-11.496093h.117188c6.414062.0625 11.558594 5.3125 11.496094 11.726562l-.253907 25.449219c5.839844 2.8125 9.882813 8.769531 9.882813 15.683593 0 9.621094-7.796875 17.421876-17.417969 17.421876zm37.125-23.171876c-11.894531 0-21.535156-9.640624-21.535156-21.53125 0-11.894531 9.640625-21.535156 21.535156-21.535156 11.890625 0 21.53125 9.640625 21.53125 21.535156 0 11.890626-9.640625 21.53125-21.53125 21.53125zm75.328125 264.394532 39.121094-19.613282 14.429687 19.613282zm0 0"/><path d="m366.398438 85.160156c0-22.203125-18-40.203125-40.203126-40.203125-22.203124 0-40.203124 18-40.203124 40.203125 0 22.226563 18.046874 40.203125 40.203124 40.203125 22.179688 0 40.203126-18.011719 40.203126-40.203125zm0 0"/><path d="m107.46875 159.523438c0 23.222656-18.828125 42.050781-42.050781 42.050781-23.222657 0-42.046875-18.828125-42.046875-42.050781 0-23.222657 18.824218-42.046876 42.046875-42.046876 23.222656 0 42.050781 18.824219 42.050781 42.046876zm0 0"/><path d="m169.445312 408.101562c-14.515624 0-28.105468-7.117187-36.375-19.046874l-96.671874-139.453126c-6.285157-9.066406-18.734376-11.320312-27.800782-5.035156s-11.324218 18.730469-5.035156 27.796875l94.09375 135.738281h-88.890625c-4.515625 0-8.179687 3.660157-8.179687 8.175782v38.585937c0 4.515625 3.664062 8.175781 8.179687 8.175781h495.058594c4.515625 0 8.175781-3.660156 8.175781-8.175781v-38.585937c0-4.515625-3.660156-8.175782-8.175781-8.175782zm0 0"/></svg>