<?xml version="1.0" encoding="UTF-8" standalone="no"?>
<svg
   xmlns:dc="http://purl.org/dc/elements/1.1/"
   xmlns:cc="http://creativecommons.org/ns#"
   xmlns:rdf="http://www.w3.org/1999/02/22-rdf-syntax-ns#"
   xmlns:svg="http://www.w3.org/2000/svg"
   xmlns="http://www.w3.org/2000/svg"
   xmlns:sodipodi="http://sodipodi.sourceforge.net/DTD/sodipodi-0.dtd"
   xmlns:inkscape="http://www.inkscape.org/namespaces/inkscape"
   viewBox="0 0 464.28687 458.85004"
   x="0px"
   y="0px"
   version="1.1"
   id="svg14"
   sodipodi:docname="disease.svg"
   width="464.28687"
   height="458.85004"
   inkscape:version="0.92.4 (5da689c313, 2019-01-14)">
  <metadata
     id="metadata20">
    <rdf:RDF>
      <cc:Work
         rdf:about="">
        <dc:format>image/svg+xml</dc:format>
        <dc:type
           rdf:resource="http://purl.org/dc/dcmitype/StillImage" />
        <dc:title>glyph disease and virus</dc:title>
      </cc:Work>
    </rdf:RDF>
  </metadata>
  <defs
     id="defs18" />
  <sodipodi:namedview
     pagecolor="#ffffff"
     bordercolor="#666666"
     borderopacity="1"
     objecttolerance="10"
     gridtolerance="10"
     guidetolerance="10"
     inkscape:pageopacity="0"
     inkscape:pageshadow="2"
     inkscape:window-width="640"
     inkscape:window-height="480"
     id="namedview16"
     showgrid="false"
     fit-margin-top="0"
     fit-margin-left="0"
     fit-margin-right="0"
     fit-margin-bottom="0"
     inkscape:zoom="0.36875"
     inkscape:cx="232.12987"
     inkscape:cy="165.43132"
     inkscape:window-x="0"
     inkscape:window-y="0"
     inkscape:window-maximized="0"
     inkscape:current-layer="svg14" />
  <title
     id="title2">glyph disease and virus</title>
  <path
     d="m 130.12987,67.288724 a 37,37 0 0 0 17.58,-0.87 c 11.25,-3.31 29,-13.07 18.9,-41 a 30.15,30.15 0 0 0 -20.48,-19.1500001 c -7.37,-1.91 -16.23,-1.15 -24.07,8.0000001 a 36.88,36.88 0 0 0 -7.2,13.66 c -3.38,11.49 -7.3,34.93 15.27,39.36 z"
     id="path4"
     inkscape:connector-curvature="0" />
  <path
     d="m 56.409867,158.89872 c 16.12,-0.51 30.39,-10.62 37.07,-25.29 a 59.29,59.29 0 0 0 4.75,-28.6 39.69,39.69 0 0 0 -4.37,-15.799996 c -6.08,-11.45 -15.18,-15 -22.88,-15.71 a 10,10 0 0 0 -10.53,12.4 81.25,81.25 0 0 1 2.14,12.2 9.78,9.78 0 0 1 -4.46,9.239996 l -0.37,0.23 a 9.93,9.93 0 0 1 -14.9,-7.919996 24.93,24.93 0 0 0 -3.91,-11.64 22.18,22.18 0 0 0 -16.71,-10.59 19.43,19.43 0 0 0 -13.6999999,3.73 21.29,21.29 0 0 0 -8.41000004,15.69 C -1.2301329,115.27872 8.5398671,129.50872 8.5398671,129.50872 c 11.7999999,18.91 34.4799999,29.81 47.8699999,29.39 z"
     id="path6"
     inkscape:connector-curvature="0" />
  <path
     d="m 442.53987,209.10872 a 22.67,22.67 0 0 0 -23.18,18.31 l -12.09,0.88 a 199.39,199.39 0 0 0 -0.43,-48.35 v 0 a 7.6,7.6 0 0 0 -9.42,-6.42 l -14.29,3.62 a 8.62,8.62 0 0 1 -2.12,0.27 8.53,8.53 0 0 1 -2.1,-16.8 l 22.22,-5.69 6.43,-1.64 11.71,-4.52 a 22.67,22.67 0 1 0 -6.66,-16.06 c 0,0.12 0,0.23 0,0.34 l -16.81,6.48 c -5.67,-14.51 -14.12,-30.82 -26.52,-45.109996 l 12.75,-21.94 a 22.65,22.65 0 1 0 -18.85,-22.31 22.55,22.55 0 0 0 4.35,13.31 l -10.75,18.47 a 106,106 0 0 0 -14,-10.18 c 0,0 -26.07,-15.14 -53.31,-12.94 l -3.76,-17.17 a 22.66,22.66 0 1 0 -16.75,3.23 l 3.88,17.74 c -15.82,6.3 -30.25,21.05 -38.13,50.999996 a 7.63,7.63 0 0 0 1.6,6.94 l 16,18.56 a 8.78,8.78 0 0 1 -0.58,12.26 8.52,8.52 0 0 1 -11.24,0 9.6,9.6 0 0 1 -0.85,-0.84 l -11.67,-13.52 -3.46,-4 -12.67,-12.67 a 22.65,22.65 0 1 0 -12.16,12 l 20.9,20.89 a 122.28,122.28 0 0 1 -18.2,25.17 168.4,168.4 0 0 1 -24.35,21.29 c -3.22,2.33 -6.55,4.5 -9.91,6.62 a 97.35,97.35 0 0 0 -17.38,14.36 l -16.05,-14.87 a 22.5,22.5 0 0 0 1.1,-12 22.66,22.66 0 1 0 -25.26,26.53 22.56,22.56 0 0 0 12.6,-1.93 l 16.87,15.63 c -11.1,16.57 -19.22,40.45 -10.95,71.87 l -17.76,5.11 a 22.58,22.58 0 0 0 -17.660003,-7.21 22.66,22.66 0 1 0 23.720003,23.22 l 8.78,-2.62 8.16,-3 27.77,-10 a 8.55,8.55 0 0 1 11.2,6 8.73,8.73 0 0 1 -5.69,10.11 l -16.77,6.06 a 7.59,7.59 0 0 0 -3.73,11.4 129.54,129.54 0 0 0 35.79,35 l -9.59,15.08 a 21.87,21.87 0 0 0 -3,-0.23 22.7,22.7 0 1 0 17.86,8.79 l 9.62,-15.13 c 21.65,10.65 50.17,18.14 83.12,11.1 l 1.26,16.82 a 22.67,22.67 0 1 0 17,-2.13 l -1.37,-17.81 -0.21,-1.6 -3.46,-26 -0.89,-6.68 a 8.76,8.76 0 0 1 7,-9.89 8.53,8.53 0 0 1 9.83,7.29 l 2.3,17.27 a 7.62,7.62 0 0 0 11.56,5.45 146.43,146.43 0 0 0 39.74,-35.9 l 17.81,12.38 a 23,23 0 0 0 -0.41,4.26 22.68,22.68 0 1 0 9.7,-18.58 l -17.48,-12.06 a 151.77,151.77 0 0 0 7.53,-14 c 9.08,-19.22 18.78,-44.53 24,-72.81 l 17.94,-1.31 a 22.66,22.66 0 1 0 19.86,-35.13 z m -164.54,83.76 c 0,0.57 0,1.15 0,1.72 0.52,20.7 -8.06,32.13 -16.82,38.39 a 35.73,35.73 0 0 1 -37,2.79 c -22.24,-11.52 -14.61,-40.21 -14.61,-40.21 5.65,-21.95 16.41,-32.68 26.29,-37.88 16.09,-8.48 36.11,0.31 40.46,18 a 65.14,65.14 0 0 1 1.68,17.19 z m 27.89,-106.53 a 22.86,22.86 0 1 1 22.86,-22.86 22.85,22.85 0 0 1 -22.86,22.86 z m 22.24,94.42 c -4.74,-7.93 -4.54,-14.54 -3,-19.34 2.54,-7.81 11.45,-12.26 18.06,-8.92 a 22.75,22.75 0 0 1 5.65,4.11 c 0.17,0.17 0.34,0.32 0.51,0.47 6.31,5.48 7,11.54 6.1,16.25 a 18.76,18.76 0 0 1 -10.82,13.42 c -10.36,4.46 -16.5,-5.99 -16.5,-5.99 z"
     id="path8"
     inkscape:connector-curvature="0" />
</svg>
