<?xml version="1.0" encoding="UTF-8" standalone="no"?>
<svg
   xmlns:dc="http://purl.org/dc/elements/1.1/"
   xmlns:cc="http://creativecommons.org/ns#"
   xmlns:rdf="http://www.w3.org/1999/02/22-rdf-syntax-ns#"
   xmlns:svg="http://www.w3.org/2000/svg"
   xmlns="http://www.w3.org/2000/svg"
   xmlns:sodipodi="http://sodipodi.sourceforge.net/DTD/sodipodi-0.dtd"
   xmlns:inkscape="http://www.inkscape.org/namespaces/inkscape"
   version="1.1"
   x="0px"
   y="0px"
   viewBox="0 0 79.690018 79.57"
   xml:space="preserve"
   id="svg12"
   sodipodi:docname="edit.svg"
   width="79.690018"
   height="79.57"
   inkscape:version="0.92.4 (5da689c313, 2019-01-14)"><metadata
     id="metadata18"><rdf:RDF><cc:Work
         rdf:about=""><dc:format>image/svg+xml</dc:format><dc:type
           rdf:resource="http://purl.org/dc/dcmitype/StillImage" /><dc:title></dc:title></cc:Work></rdf:RDF></metadata><defs
     id="defs16" /><sodipodi:namedview
     pagecolor="#ffffff"
     bordercolor="#666666"
     borderopacity="1"
     objecttolerance="10"
     gridtolerance="10"
     guidetolerance="10"
     inkscape:pageopacity="0"
     inkscape:pageshadow="2"
     inkscape:window-width="1920"
     inkscape:window-height="1001"
     id="namedview14"
     showgrid="false"
     fit-margin-top="0"
     fit-margin-left="0"
     fit-margin-right="0"
     fit-margin-bottom="0"
     inkscape:zoom="1.888"
     inkscape:cx="39.72"
     inkscape:cy="27.25"
     inkscape:window-x="-9"
     inkscape:window-y="-9"
     inkscape:window-maximized="1"
     inkscape:current-layer="svg12" /><g
     id="g6"
     transform="translate(-10.28,-10.18)"><path
       d="M 72.56,89.75 H 18.9 C 14.15,89.74 10.29,85.88 10.28,81.13 V 31.3 c 0.01,-4.75 3.87,-8.61 8.62,-8.62 h 16.98 c 1.59,0 2.88,1.29 2.88,2.88 0,1.59 -1.29,2.88 -2.88,2.88 H 18.9 c -1.57,0 -2.85,1.28 -2.86,2.86 v 49.83 c 0,1.57 1.28,2.85 2.86,2.86 h 53.65 c 1.57,0 2.85,-1.28 2.85,-2.86 V 64.16 c 0,-1.59 1.29,-2.88 2.88,-2.88 1.59,0 2.88,1.29 2.88,2.88 v 16.98 c 0.01,4.74 -3.85,8.61 -8.6,8.61 z"
       id="path2"
       inkscape:connector-curvature="0" /><path
       d="M 89.12,22.36 77.82,11.03 c -0.55,-0.54 -1.28,-0.85 -2.05,-0.85 -0.76,0 -1.5,0.31 -2.04,0.85 L 35.3,49.47 c -0.35,0.35 -0.6,0.77 -0.73,1.24 L 30,66.5 c -0.29,1 -0.01,2.08 0.72,2.82 0.55,0.56 1.29,0.86 2.06,0.86 0.25,0 0.51,-0.04 0.76,-0.11 l 15.93,-4.38 c 0.48,-0.13 0.92,-0.39 1.27,-0.75 l 38.4,-38.52 c 1.11,-1.11 1.11,-2.93 -0.02,-4.06 z m -52.15,40.8 2.06,-7.13 5.19,5.13 z m 11.72,-4.31 -7.34,-7.28 27.34,-27.34 7.29,7.22 z m 30.68,-30.8 -7.28,-7.22 3.68,-3.68 7.24,7.25 z"
       id="path4"
       inkscape:connector-curvature="0" /></g></svg>