<svg id="Layer_5" enable-background="new 0 0 64 64" height="512" viewBox="0 0 64 64" width="512" xmlns="http://www.w3.org/2000/svg"><path d="m58 2v5c0 2.212-4.016 3.145-8.296 4.612-.557.191-1.131.388-1.709.599.07.084.144.163.213.247l2.216 3.137c.19-.067.379-.133.578-.201 4.009-1.373 10.998-3.083 10.998-8.394v-5z"/><path d="m20.498 30.498c-.033.034-.07.075-.104.118l-1.561-1.252c.077-.096.159-.188.245-.274 1.018-1.018 2.554-1.295 4.246-.924 1.284-2.978.663-6.511-1.663-8.84-1.512-1.514-3.521-2.347-5.659-2.347-2.137 0-4.146.833-5.658 2.347-3.12 3.124-3.12 8.208 0 11.332l1.611 1.612 1.44 5.77c.908 3.638 2.788 6.962 5.437 9.613 1.512 1.514 3.521 2.347 5.658 2.347s4.146-.833 5.659-2.347c.407-.408.672-.911.796-1.463-.43-.516-.93-.978-1.5-1.358l1.109-1.664c2.144 1.429 3.581 3.71 3.945 6.26l.207 1.451c.073.516.449.929.931 1.069l.241-.241c.45-.449 1.072-.707 1.708-.707s1.211.252 1.643.656c.452-.233.845-.57 1.132-1.001l.569-.854c.045-.066.07-.148.07-.229v-.158c0-.338-.469-.531-.707-.293l-.879.879h-.414c-1.634 0-3.041-1.22-3.273-2.837l-.069-.487c-.383-2.679-1.737-5.107-3.816-6.84-1.487-1.239-3.283-2.062-5.191-2.381l-2.813-.469.328-1.973 2.813.469c.913.152 1.795.427 2.649.767-.444-1.178-1.263-2.424-2.357-3.519-2.654-2.651-5.698-3.304-6.773-2.232zm-8.498-5.498h-2c0-3.309 2.691-6 6-6v2c-2.206 0-4 1.794-4 4zm3.556 12.522-.228-.911 1.939-.484.228.911c.096.379.204.755.325 1.126l-1.902.619c-.135-.414-.257-.835-.362-1.261zm.759 2.361 1.857-.74c.248.622.534 1.233.853 1.817l-1.756.957c-.356-.654-.677-1.339-.954-2.034zm10.598 5.404 1.104 1.668c-1.005.665-2.156.989-3.302.989-1.553 0-3.095-.597-4.25-1.752-1.005-1.004-1.896-2.125-2.646-3.332l1.699-1.057c.669 1.077 1.464 2.078 2.361 2.975 1.34 1.339 3.457 1.554 5.034.509z"/><path d="m37.293 53.121-.879.879h-.414c-1.634 0-3.041-1.22-3.273-2.837l-.207-1.452c-.068-.479-.188-.944-.349-1.393-.178.264-.376.517-.606.748-.742.743-1.583 1.349-2.489 1.818l3.48 4.061c.575.67 1.41 1.054 2.293 1.054 1.013 0 1.951-.503 2.513-1.345l.569-.854c.044-.065.069-.147.069-.228v-.158c0-.338-.469-.531-.707-.293z"/><path d="m44 21c0 7.611-7.42 9.436-10.646 10.769-1.275.526-2.284.949-3.012 1.571.91 1.363 1.481 2.792 1.615 4.114.4.264.794.537 1.164.845 2.46 2.051 4.063 4.925 4.517 8.094l.069.486c.073.516.449.929.931 1.069l.241-.241c.449-.449 1.071-.707 1.707-.707 1.331 0 2.414 1.083 2.414 2.414v.158c0 .477-.14.939-.404 1.337l-.57.855c-.509.763-1.211 1.36-2.025 1.746v.061c0 .477-.14.938-.404 1.337l-.57.855c-.934 1.401-2.496 2.237-4.178 2.237-1.467 0-2.856-.639-3.811-1.752l-3.943-4.6c-.84.226-1.712.352-2.605.352-2.672 0-5.184-1.042-7.073-2.933-2.904-2.908-4.966-6.554-5.962-10.543l-1.307-5.232-1.219-1.22c-3.9-3.904-3.9-10.256 0-14.16 1.889-1.891 4.4-2.933 7.072-2.933 2.673 0 5.185 1.042 7.073 2.933 2.873 2.876 3.688 7.229 2.158 10.924.816.389 1.635.917 2.425 1.563 1.29-1.131 2.841-1.779 4.169-2.327 3.004-1.241 8.174-2.136 8.174-7.072 0-5.281 4.084-7.36 7.995-8.788-4.906-5.856-11.807-9.212-18.995-9.212-14.337 0-26 13.01-26 29s11.663 29 26 29 26-13.01 26-29c0-5.813-1.538-11.423-4.447-16.222l-.128-.182c-4.36 1.524-6.425 2.637-6.425 5.404zm-15-16c2.12 0 4.237.32 6.294.952l-.588 1.912c-5.882-1.809-12.254-.705-17.371 2.949l-1.162-1.627c3.836-2.739 8.271-4.186 12.827-4.186zm-14.184 5.229 1.273 1.541c-.713.59-1.402 1.235-2.048 1.917l-1.453-1.375c.703-.741 1.452-1.442 2.228-2.083zm-9.375 26.941 1.971-.34c.109.631.242 1.266.395 1.89l-1.941.477c-.166-.669-.308-1.35-.425-2.027zm.989 4.018 1.904-.613c.196.61.418 1.22.657 1.812l-1.855.748c-.257-.636-.494-1.291-.706-1.947zm2.535 5.666c-.349-.594-.68-1.208-.983-1.825l1.795-.883c.282.573.589 1.144.913 1.696zm43.756-18.989c.094.689.164 1.386.21 2.068l-1.996.133c-.042-.637-.108-1.287-.196-1.932zm-1.721 4.135h2c0 6.061-1.75 11.79-5.06 16.569l-1.645-1.139c3.078-4.443 4.705-9.779 4.705-15.43z"/></svg>