<?xml version="1.0" encoding="iso-8859-1"?>
<!-- Generator: Adobe Illustrator 19.0.0, SVG Export Plug-In . SVG Version: 6.00 Build 0)  -->
<svg version="1.1" id="Capa_1" xmlns="http://www.w3.org/2000/svg" xmlns:xlink="http://www.w3.org/1999/xlink" x="0px" y="0px"
	 viewBox="0 0 54.239 54.239" style="enable-background:new 0 0 54.239 54.239;" xml:space="preserve">
<g>
	<g>
		<rect x="27.394" y="27.079" transform="matrix(0.9542 -0.2991 0.2991 0.9542 -7.3044 11.2846)" width="11.636" height="4.849"/>
	</g>
</g>
<g>
	<g>
		<path d="M21.132,45.188c-0.937-0.979-1.738-2.087-2.37-3.298c-0.044-0.085-0.083-0.173-0.125-0.258h21.694V38.4H17.492
			c-0.226-1.011-0.351-2.062-0.352-3.149c0.001-3.099,0.969-5.936,2.625-8.283c1.327-1.878,3.101-3.417,5.153-4.479l1.051,3.352
			l11.104-3.481L30.789,2.311l-2.467,0.773L27.356,0l-6.169,1.933l0.967,3.084l-2.469,0.776l2.891,9.222
			c-3.69,1.631-6.845,4.223-9.145,7.475c-2.548,3.6-4.05,8.023-4.048,12.761c-0.001,3.561,0.853,6.947,2.359,9.937h-4.34v2.586
			c0,3.556,2.909,6.465,6.465,6.465h26.505c3.556,0,6.465-2.909,6.465-6.465v-2.586H21.132z"/>
	</g>
</g>
<g>
</g>
<g>
</g>
<g>
</g>
<g>
</g>
<g>
</g>
<g>
</g>
<g>
</g>
<g>
</g>
<g>
</g>
<g>
</g>
<g>
</g>
<g>
</g>
<g>
</g>
<g>
</g>
<g>
</g>
</svg>
