<?xml version="1.0" encoding="UTF-8" standalone="no"?>
<svg
   xmlns:dc="http://purl.org/dc/elements/1.1/"
   xmlns:cc="http://creativecommons.org/ns#"
   xmlns:rdf="http://www.w3.org/1999/02/22-rdf-syntax-ns#"
   xmlns:svg="http://www.w3.org/2000/svg"
   xmlns="http://www.w3.org/2000/svg"
   xmlns:sodipodi="http://sodipodi.sourceforge.net/DTD/sodipodi-0.dtd"
   xmlns:inkscape="http://www.inkscape.org/namespaces/inkscape"
   viewBox="0 0 66.806038 70.730598"
   x="0px"
   y="0px"
   version="1.1"
   id="svg10"
   sodipodi:docname="mother.svg"
   width="66.806038"
   height="70.730598"
   inkscape:version="0.92.4 (5da689c313, 2019-01-14)">
  <metadata
     id="metadata16">
    <rdf:RDF>
      <cc:Work
         rdf:about="">
        <dc:format>image/svg+xml</dc:format>
        <dc:type
           rdf:resource="http://purl.org/dc/dcmitype/StillImage" />
        <dc:title>•SET16-v3</dc:title>
      </cc:Work>
    </rdf:RDF>
  </metadata>
  <defs
     id="defs14" />
  <sodipodi:namedview
     pagecolor="#ffffff"
     bordercolor="#666666"
     borderopacity="1"
     objecttolerance="10"
     gridtolerance="10"
     guidetolerance="10"
     inkscape:pageopacity="0"
     inkscape:pageshadow="2"
     inkscape:window-width="640"
     inkscape:window-height="480"
     id="namedview12"
     showgrid="false"
     fit-margin-top="0"
     fit-margin-left="0"
     fit-margin-right="0"
     fit-margin-bottom="0"
     inkscape:zoom="1.888"
     inkscape:cx="33.313625"
     inkscape:cy="2.3523097"
     inkscape:window-x="0"
     inkscape:window-y="0"
     inkscape:window-maximized="0"
     inkscape:current-layer="svg10" />
  <title
     id="title2">•SET16-v3</title>
  <path
     d="m 66.743625,64.099269 a 3.925,3.925 0 0 0 -2.471,-2.862 10.556,10.556 0 0 0 -3.773,-1.209 1.762,1.762 0 0 0 -0.977,0.133 1.633,1.633 0 0 0 -0.39,1.041 4.75,4.75 0 0 0 0.251,2.013 7.306,7.306 0 0 0 2.846,3.53 6.911,6.911 0 0 0 3.265,1.346 c 0.371,-0.075 1.063,-1.78 1.211,-2.44 a 3.792,3.792 0 0 0 0.038,-1.552 z m -9.558,-5.893 c 1.218,-1.292 3.031,-1.088 3.895,-0.995 a 12.349,12.349 0 0 1 2.519,0.493 8.319,8.319 0 0 0 -6.627,-13.347 8.9,8.9 0 0 0 -6.2,3.3 7.027,7.027 0 0 0 -1.942,5.4 1.579,1.579 0 0 1 -3.123,0.465 8.548,8.548 0 0 1 0.316,-3.727 c -5.9,-0.065 -16.387,-0.037 -22.521,2.194 -0.353,0.13 -0.8,0.288 -1.32,0.474 -2.528,0.883 -7.213,2.528 -9.518,4.043 -0.083,0.371 -0.176,0.734 -0.251,1.115 4.425,-0.093 8.347,1.041 12.158,2.147 a 42.505,42.505 0 0 0 10.781,2.128 7.717,7.717 0 0 0 4.62,-1.162 c 0.158,-0.093 0.325,-0.2 0.492,-0.307 a 5.367,5.367 0 0 1 3.449,-1.2 c 3.067,0.307 3.569,2.826 3.811,4.034 0.055,0.232 0.12,0.576 0.176,0.734 a 8.517,8.517 0 0 0 1.813,0.827 10.734,10.734 0 0 0 2.648,0.957 7.981,7.981 0 0 0 4.527,-1.078 4.638,4.638 0 0 1 -0.465,-0.966 6.786,6.786 0 0 1 -0.232,-2.779 4.31,4.31 0 0 1 0.994,-2.75 z m -8.588,9.573 a 9.616,9.616 0 0 1 -2.76,-1.385 4,4 0 0 1 -1.209,-2.509 c -0.269,-1.339 -0.39,-1.45 -1.031,-1.506 a 3.771,3.771 0 0 0 -1.413,0.7 c -0.2,0.13 -0.4,0.26 -0.595,0.372 a 10.818,10.818 0 0 1 -6.32,1.608 45.557,45.557 0 0 1 -11.572,-2.25 c -4.294,-1.245 -8.346,-2.425 -13.012,-1.914 -0.028,0.009 -0.047,0 -0.075,0.009 h -0.186 c -0.028,0 -0.065,-0.009 -0.13,-0.009 a 0.2,0.2 0 0 0 -0.074,-0.019 1.366,1.366 0 0 1 -0.214,-0.056 0.556,0.556 0 0 1 -0.093,-0.037 c -0.065,-0.028 -0.121,-0.056 -0.186,-0.083 a 0.589,0.589 0 0 1 -0.083,-0.065 c -0.056,-0.038 -0.112,-0.075 -0.158,-0.112 l -0.084,-0.084 a 0.881,0.881 0 0 1 -0.13,-0.139 c -0.019,-0.028 -0.047,-0.065 -0.065,-0.093 a 1.446,1.446 0 0 1 -0.094,-0.161 c -0.019,-0.037 -0.037,-0.084 -0.056,-0.13 a 1.242,1.242 0 0 1 -0.093,-0.307 0.476,0.476 0 0 1 -0.018,-0.111 c -0.01,-0.01 0,-0.028 0,-0.038 a 0.788,0.788 0 0 1 -0.01,-0.158 1.477,1.477 0 0 1 0.01,-0.195 c 0.8,-5.6 2.5739998,-9.229 4.8329998,-13.812 a 2.485,2.485 0 0 1 1.589,-1.44 1.524,1.524 0 0 1 1.915,1.152 5,5 0 0 1 -1.078,2.6 c -0.967,1.97 -1.432,2.835 -2.138,4.591 2.407,-1.087 5.158,-2.054 7.073,-2.723 0.5,-0.177 0.939,-0.335 1.283,-0.455 6.255,-2.278 15.643,-2.491 24.863,-2.371 a 1.212,1.212 0 0 1 0.26,0.028 13.222,13.222 0 0 1 0.836,-1.087 13.007,13.007 0 0 1 6.154,-4.034 13.187,13.187 0 0 0 -4.471,-3.393 23.718,23.718 0 0 0 -6.125,-1.663 l -0.456,-0.075 a 15.786,15.786 0 0 1 -4.74,-1.254 c -2.835,-1.4 -2.677,-3.495 -3.114,-6.033 a 14.9,14.9 0 0 1 -10.828,0.437 6.518,6.518 0 0 1 -1.041,3.514 c -1.626,2.453 -2.723,3.02 -4.675,3.4 -0.353,0.065 -0.669,0.131 -0.939,0.2 -0.9,0.232 -1.8,0.381 -2.686,0.529 a 15.119,15.119 0 0 0 -4.023,1.028 c -3.1249998,1.5 -4.7249998,5.116 -6.2189998,9.011 -2.268,5.889 -4.60599997,11.989 -5.21399997,18.31 a 1.354,1.354 0 0 0 1.18999997,1.468 c 15.6329998,1.924 32.1679998,2.863 45.4499998,3.607 a 6.319,6.319 0 0 0 3.467,-0.391 1.578,1.578 0 0 0 0.637,-0.8 0.686,0.686 0 0 0 0.019,-0.466 0.788,0.788 0 0 0 -0.338,-0.373 9.885,9.885 0 0 0 -1.833,-0.833 z m -31.124,-56.463 a 5.1,5.1 0 0 0 0.979,0.2 c -0.114,0.633 -0.156,1.053 -0.156,1.053 -0.056,0.567 -0.093,1.079 -0.093,1.543 0,5.54 2.909,10.308 7.036,12.344 a 10.052,10.052 0 0 0 4.47,1.059 c 4.759,0 8.858,-3.383 10.606,-8.188 a 15.443,15.443 0 0 0 0.9,-5.215 c 0,-7.3800001 -5.158,-13.39300011 -11.507,-13.39300011 a 10.243,10.243 0 0 0 -5.734,1.80000001 c -0.042,0.03 -0.077,0.063 -0.118,0.094 a 5.718,5.718 0 0 0 -5.191,-2.60000001 5.768,5.768 0 0 0 -1.193,11.30000011 z"
     id="path4"
     inkscape:connector-curvature="0" />
</svg>
