<?xml version="1.0" encoding="UTF-8" standalone="no"?>
<svg
   xmlns:dc="http://purl.org/dc/elements/1.1/"
   xmlns:cc="http://creativecommons.org/ns#"
   xmlns:rdf="http://www.w3.org/1999/02/22-rdf-syntax-ns#"
   xmlns:svg="http://www.w3.org/2000/svg"
   xmlns="http://www.w3.org/2000/svg"
   xmlns:sodipodi="http://sodipodi.sourceforge.net/DTD/sodipodi-0.dtd"
   xmlns:inkscape="http://www.inkscape.org/namespaces/inkscape"
   viewBox="0 0 69.057999 65.863998"
   x="0px"
   y="0px"
   version="1.1"
   id="svg10"
   sodipodi:docname="visit.svg"
   width="69.057999"
   height="65.863998"
   inkscape:version="0.92.4 (5da689c313, 2019-01-14)">
  <metadata
     id="metadata16">
    <rdf:RDF>
      <cc:Work
         rdf:about="">
        <dc:format>image/svg+xml</dc:format>
        <dc:type
           rdf:resource="http://purl.org/dc/dcmitype/StillImage" />
        <dc:title>•SET16-v3</dc:title>
      </cc:Work>
    </rdf:RDF>
  </metadata>
  <defs
     id="defs14" />
  <sodipodi:namedview
     pagecolor="#ffffff"
     bordercolor="#666666"
     borderopacity="1"
     objecttolerance="10"
     gridtolerance="10"
     guidetolerance="10"
     inkscape:pageopacity="0"
     inkscape:pageshadow="2"
     inkscape:window-width="1920"
     inkscape:window-height="1001"
     id="namedview12"
     showgrid="false"
     fit-margin-top="0"
     fit-margin-left="0"
     fit-margin-right="0"
     fit-margin-bottom="0"
     inkscape:zoom="1.888"
     inkscape:cx="34.979"
     inkscape:cy="16.682"
     inkscape:window-x="-9"
     inkscape:window-y="-9"
     inkscape:window-maximized="1"
     inkscape:current-layer="svg10" />
  <title
     id="title2">•SET16-v3</title>
  <path
     d="M 24.996,7.037 A 2.016,2.016 0 0 1 27.01,5.023 h 15.035 a 2.016,2.016 0 0 1 2.014,2.014 v 7.075 h 5.02 V 7.037 A 7.045,7.045 0 0 0 42.042,0 H 27.01 a 7.045,7.045 0 0 0 -7.037,7.037 v 7.075 h 5.023 z m 42.85,9.829 H 1.2120004 A 1.215,1.215 0 0 0 4.1457582e-7,18.082 v 46.57 A 1.215,1.215 0 0 0 1.2120004,65.864 H 67.846 a 1.215,1.215 0 0 0 1.212,-1.212 V 18.082 A 1.215,1.215 0 0 0 67.846,16.866 Z M 48.459,47.797 h -7.975 v 7.975 H 28.579 v -7.975 h -7.98 v -11.91 h 7.98 v -7.975 h 11.91 v 7.975 h 7.97 z M 37.338,31.059 H 31.72 v 7.975 h -7.984 v 5.617 h 7.984 v 7.974 h 5.618 v -7.974 h 7.974 v -5.617 h -7.974 z"
     id="path4"
     inkscape:connector-curvature="0" />
</svg>
